<svg width="250" height="250" viewBox="0 0 250 250" fill="none" xmlns="http://www.w3.org/2000/svg">
<g clip-path="url(#clip0_401_2)">
<path d="M125 250C194.036 250 250 194.036 250 125C250 55.9644 194.036 0 125 0C55.9644 0 0 55.9644 0 125C0 194.036 55.9644 250 125 250Z" fill="#0B3D91"/>
<path d="M125 224.391C179.615 224.391 224.391 179.615 224.391 125C224.391 70.3852 179.615 25.6089 125 25.6089C70.3852 25.6089 25.6089 70.3852 25.6089 125C25.6089 179.615 70.3852 224.391 125 224.391Z" fill="white"/>
<path d="M172.081 125.001C172.081 151.016 151.015 172.082 125 172.082C98.9852 172.082 77.9189 151.016 77.9189 125.001C77.9189 98.9852 98.9852 77.9189 125 77.9189C151.015 77.9189 172.081 98.9852 172.081 125.001Z" fill="#0B3D91"/>
<path d="M102.391 121.305L70.6289 89.5435L62.7715 142.305L102.391 121.305Z" fill="#DB5A42"/>
<path d="M187.5 125C187.5 131.956 186.13 138.746 183.571 144.919L143.714 91.5652L125 70.6522L80.3571 144.919C75.2143 135.688 72.0811 126.953 72.0811 118.043C72.0811 88.0161 95.9348 64.1625 125.962 64.1625C146.95 64.1625 165.176 76.5414 173.237 93.9939C182.25 102.043 187.5 112.962 187.5 125Z" fill="white"/>
<path d="M187.229 148.913C184.106 155.609 179.825 161.464 174.681 166.457L134.507 114.13L104.919 151.522C111.082 153.203 117.872 154.043 125 154.043C137.5 154.043 149.13 150.348 158.478 144.239L187.229 148.913Z" fill="white"/>
</g>
<defs>
<clipPath id="clip0_401_2">
<rect width="250" height="250" fill="white"/>
</clipPath>
</defs>
</svg>